# xmcd
#
# Track frame offsets:
#	150
#	11467
#	20717
#	30937
#	39970
#	50425
#	60732
#	70202
#	80572
#	89142
#	98132
#	107035
#	116645
#	126792
#	136107
#	144972
#	154312
#	164297
#	173305
#	183415
#	193080
#	207150
#	222177
#	236517
#	251245
#
# Disc length: 3548 seconds
#
# Revision: 1
# Processed by: cddbd v1.5.1PL0 Copyright (c) Steve Scherf et al.
# Submitted via: CDex 1.50Beta5
#
DISCID=560dda19
DTITLE=ソニー - 3秒・旅行英会話
DYEAR=1900
DGENRE=
TTITLE0=機内で
TTITLE1=機内で2
TTITLE2=到着
TTITLE3=到着2
TTITLE4=ホテルで
TTITLE5=ホテルで2
TTITLE6=交通機関を利用する
TTITLE7=交通機関を利用する2
TTITLE8=観光する
TTITLE9=観光する2
TTITLE10=買い物する
TTITLE11=買い物する2
TTITLE12=食事と飲み物
TTITLE13=食事と飲み物2
TTITLE14=電話をかける
TTITLE15=電話をかける2
TTITLE16=緊急事態が起きたとき
TTITLE17=緊急事態が起きたとき2
TTITLE18=日本へ帰る
TTITLE19=日本へ帰る2
TTITLE20=旅の基本フレーズ
TTITLE21=旅の基本フレーズ2
TTITLE22=旅の基本フレーズ3
TTITLE23=旅の基本フレーズ4
TTITLE24=旅の基本フレーズ5
EXTD=
EXTT0=
EXTT1=
EXTT2=
EXTT3=
EXTT4=
EXTT5=
EXTT6=
EXTT7=
EXTT8=
EXTT9=
EXTT10=
EXTT11=
EXTT12=
EXTT13=
EXTT14=
EXTT15=
EXTT16=
EXTT17=
EXTT18=
EXTT19=
EXTT20=
EXTT21=
EXTT22=
EXTT23=
EXTT24=
PLAYORDER=
